<svg width="800" height="800" viewBox="0 0 2050 2050" data-name="Layer 3" id="Layer_3" xmlns="http://www.w3.org/2000/svg"><defs><style>.cls-1{fill:#1682fc}.cls-2{fill:#2e3a58}</style></defs><path class="cls-1" d="M984.5 1651.2a244.1 244.1 0 01-244-244.1v-27.6a15 15 0 0115-15h45a15 15 0 0115 15v27.6c0 93.2 75.8 169.1 169 169.1s169.1-75.9 169.1-169.1V846.2c0-105.9 86.2-192.1 192.1-192.1s192.2 86.2 192.2 192.1v71.7a15 15 0 01-15 15h-45a15 15 0 01-15-15v-71.7c0-64.6-52.6-117.1-117.2-117.1a117.2 117.2 0 00-117.1 117.1v560.9a244.1 244.1 0 01-244.1 244.1zm-214-256.7v12.6a214.1 214.1 0 10428.1 0V846.2c0-81.1 66-147.1 147.1-147.1s147.2 66 147.2 147.1v56.7h15v-56.7c0-89.4-72.8-162.1-162.2-162.1s-162.1 72.7-162.1 162.1v560.9c0 109.8-89.3 199.1-199.1 199.1s-199-89.3-199-199.1v-12.6z"/><path class="cls-1" d="M777.7 1266.4l-10.4-.2a5.1 5.1 0 01-4.8-5.2 5 5 0 015.2-4.8l10 .2a263.2 263.2 0 0048.6-4.6 5 5 0 111.8 9.8 265.7 265.7 0 01-50.4 4.8zm-69.4-9.2l-1.3-.2a274.1 274.1 0 01-56.6-22.6 5 5 0 01-2.1-6.8 4.9 4.9 0 016.8-2 254.8 254.8 0 0054.6 21.7 5 5 0 01-1.4 9.9zm176-13.3a4.9 4.9 0 01-4.5-3 5 5 0 012.5-6.6 257.1 257.1 0 0050.6-29.7 5.1 5.1 0 017 1 4.9 4.9 0 01-1 7 271.9 271.9 0 01-52.5 30.9 5.2 5.2 0 01-2.1.4zm-280.7-43.1a4.8 4.8 0 01-3.3-1.3 266.8 266.8 0 01-41-45.2 4.9 4.9 0 011.2-6.9 5 5 0 017 1.1 258.3 258.3 0 0039.4 43.5 5.1 5.1 0 01.5 7.1 5.2 5.2 0 01-3.8 1.7zm375.8-28.3a5 5 0 01-3.8-8.2 259.8 259.8 0 0032.5-48.9 5 5 0 118.9 4.5 268.3 268.3 0 01-33.7 50.8 5 5 0 01-3.9 1.8zm-445.2-68.3a5.1 5.1 0 01-4.6-3.1 271.1 271.1 0 01-16.9-58.6 4.9 4.9 0 014.1-5.7 4.8 4.8 0 015.7 4.1 263.8 263.8 0 0016.3 56.4 4.9 4.9 0 01-2.7 6.5 4.1 4.1 0 01-1.9.4zm499.4-37.6l-1.2-.2a5 5 0 01-3.7-6 259.5 259.5 0 007.7-58.2 5 5 0 015.1-5 5.2 5.2 0 014.9 5.1 272.6 272.6 0 01-7.9 60.5 5.1 5.1 0 01-4.9 3.8zM514 986.9a5 5 0 01-5-5v-60a5 5 0 015-5 5 5 0 015 5v60a5 5 0 01-5 5zm527.4-39.7a5 5 0 01-5-5v-60a5 5 0 0110 0v60a5 5 0 01-5 5z"/><path class="cls-2" d="M537.2 897.2h-45a15 15 0 01-15-15V593.5a107.8 107.8 0 01107.7-107.6 15 15 0 0115 15v45a15 15 0 01-15 15 32.7 32.7 0 00-32.7 32.6v288.7a15 15 0 01-15 15zm-30-30h15V593.5a62.9 62.9 0 0147.7-60.8v-15.3a77.8 77.8 0 00-62.7 76.1zm556.5 30h-45a15 15 0 01-15-15V593.5a32.6 32.6 0 00-32.6-32.6 15 15 0 01-15-15v-45a15 15 0 0115-15 107.7 107.7 0 01107.6 107.6v288.7a15 15 0 01-15 15zm-30-30h15V593.5a77.7 77.7 0 00-62.6-76.1v15.3a62.8 62.8 0 0147.6 60.8z"/><path class="cls-2" d="M835.3 1394.5H720.7a15 15 0 01-15-15v-75A319.8 319.8 0 01458.4 993V882.2a15 15 0 0115-15h80a15.1 15.1 0 0115 15V993a209.6 209.6 0 10419.2 0V882.2a15.1 15.1 0 0115-15h80a15 15 0 0115 15V993a319.8 319.8 0 01-247.3 311.5v75a15 15 0 01-15 15zm-99.6-30h84.6v-72.2a14.9 14.9 0 0112.2-14.7A289.9 289.9 0 001067.6 993v-95.8h-50V993a239.6 239.6 0 11-479.2 0v-95.8h-50V993a289.9 289.9 0 00235.1 284.6 14.9 14.9 0 0112.2 14.7z"/><path d="M1579 940.1a129.9 129.9 0 01-180.9 180.9A129.9 129.9 0 101579 940.1z" fill="#e0e1e2"/><path class="cls-2" d="M1504.6 1191.5c-79.8 0-144.8-65-144.8-144.9s65-144.9 144.8-144.9 144.9 65 144.9 144.9-65 144.9-144.9 144.9zm0-259.8c-63.3 0-114.8 51.6-114.8 114.9s51.5 114.9 114.8 114.9a114.9 114.9 0 100-229.8z"/><path class="cls-1" d="M1526.8 1024.5v-44.3h-44.3v44.3h-44.3v44.3h44.3v44.2h44.3v-44.2h44.3v-44.3h-44.3zM627.5 617.8a57.6 57.6 0 01-57.6-57.6v-73.6a57.7 57.7 0 01115.3 0v73.6a57.7 57.7 0 01-57.7 57.6zm0-158.8a27.7 27.7 0 00-27.6 27.6v73.6a27.7 27.7 0 0055.3 0v-73.6a27.7 27.7 0 00-27.7-27.6zm301 158.8a57.7 57.7 0 01-57.7-57.6v-73.6a57.7 57.7 0 01115.3 0v73.6a57.6 57.6 0 01-57.6 57.6zm0-158.8a27.7 27.7 0 00-27.7 27.6v73.6a27.7 27.7 0 0055.3 0v-73.6a27.7 27.7 0 00-27.6-27.6z"/></svg>