<svg width="800" height="800" viewBox="0 0 2050 2050" data-name="Layer 3" id="Layer_3" xmlns="http://www.w3.org/2000/svg"><defs><style>.cls-2{fill:#2e3a58}</style></defs><path d="M1533.2 1565.3H652.1a102.3 102.3 0 01-102.3-102.2V607.5a98.5 98.5 0 011.8-18.9 134.2 134.2 0 00-67.1 116.3v791.4a134.3 134.3 0 00134.3 134.3h817a134.2 134.2 0 00116.3-67.1 97.7 97.7 0 01-18.9 1.8z" fill="#e0e1e2"/><path class="cls-2" d="M1565.5 777.6h-1081a15 15 0 110-30h1081a15 15 0 010 30z"/><path class="cls-2" d="M1429.8 1645.6H620.2c-83.1 0-150.7-67.6-150.7-150.7V706.3a150.7 150.7 0 01128.9-149.1 15 15 0 114.3 29.7 120.6 120.6 0 00-103.2 119.4v788.6a120.8 120.8 0 00120.7 120.7h809.6a120.8 120.8 0 00120.7-120.7V706.3a120.7 120.7 0 00-102-119.3 15 15 0 114.6-29.6 150.6 150.6 0 01127.4 148.9v788.6c0 83.1-67.6 150.7-150.7 150.7z"/><path class="cls-2" d="M1352 585.6h-151a15 15 0 010-30h151a15 15 0 010 30zm-248.9 0H950.2a15 15 0 010-30h152.9a15 15 0 010 30zm-251.7 0H702.2a15 15 0 010-30h149.2a15 15 0 010 30z"/><path d="M1096.4 1111.5V968.6H953.6v142.9H810.7v142.8h142.9v142.9h142.8v-142.9h142.9v-142.8h-142.9zm-71.4 388.7a332.4 332.4 0 01-49.9-3.9 5 5 0 01-4.1-5.8 4.9 4.9 0 015.7-4.1 321 321 0 0058.8 3.6 5 5 0 015.2 4.8 5 5 0 01-4.9 5.2zm70.1-7.9a5 5 0 01-1.2-9.9 303.4 303.4 0 0055.9-18.7 5 5 0 014.1 9.2 317.6 317.6 0 01-57.7 19.2zm-177.2-11l-1.7-.3a314.4 314.4 0 01-54.9-26.3 5 5 0 01-1.7-6.8 4.9 4.9 0 016.9-1.7 308.1 308.1 0 0053.1 25.4 5 5 0 013 6.4 4.8 4.8 0 01-4.7 3.3zm286.1-37.5a5.2 5.2 0 01-4.1-2.1 5.1 5.1 0 011.2-7 309.3 309.3 0 0044.8-38.3 5 5 0 017.1-.1 5 5 0 01.1 7.1 316.1 316.1 0 01-46.2 39.5 5.2 5.2 0 01-2.9.9zm-388.2-24.1a4.6 4.6 0 01-3.3-1.3 317.8 317.8 0 01-41.1-44.9 5 5 0 011-7 5.1 5.1 0 017 1 309.4 309.4 0 0039.8 43.5 5 5 0 01.3 7.1 4.9 4.9 0 01-3.7 1.6zm471.1-61.7a4.8 4.8 0 01-2.8-.8 5 5 0 01-1.4-6.9 304.6 304.6 0 0027.2-52.2 5.1 5.1 0 016.6-2.8 5.1 5.1 0 012.7 6.5 325.7 325.7 0 01-28.1 54 5.2 5.2 0 01-4.2 2.2zm-542.8-33.6a5 5 0 01-4.5-2.8 312.4 312.4 0 01-21.2-57 4.9 4.9 0 013.5-6.1 5 5 0 016.1 3.5 311.6 311.6 0 0020.6 55.3 4.9 4.9 0 01-2.3 6.6 4.4 4.4 0 01-2.2.5zm587.5-76.9h-1a4.8 4.8 0 01-3.9-5.8 307.8 307.8 0 002.7-100.6 5 5 0 014.3-5.6 4.9 4.9 0 015.6 4.3 310.4 310.4 0 013 43.2 323.2 323.2 0 01-5.8 60.6 5 5 0 01-4.9 3.9zm-618.1-38.3a5 5 0 01-5-4.6c-.5-7.2-.8-14.5-.8-21.7a339.2 339.2 0 012.4-39.1 5.1 5.1 0 015.6-4.4 5 5 0 014.4 5.6 299 299 0 00-2.4 37.9c0 7 .3 14.1.8 21a5 5 0 01-4.7 5.3zm14.6-118.3l-1.5-.2a4.9 4.9 0 01-3.2-6.3 307.1 307.1 0 0124.3-55.8 5 5 0 018.8 4.9 294.6 294.6 0 00-23.6 54 5 5 0 01-4.8 3.4zm592.5-3.8a5.1 5.1 0 01-4.7-3.4 308.9 308.9 0 00-24.3-53.7 5 5 0 118.6-5 309.8 309.8 0 0125.1 55.4 5 5 0 01-3.1 6.4 4.5 4.5 0 01-1.6.3zM786.2 986.8a5.1 5.1 0 01-3.9-8.3 317.7 317.7 0 0143.5-42.5 5 5 0 016.3 7.7A310.1 310.1 0 00790 985a5.3 5.3 0 01-3.8 1.8zm475-3.1a4.9 4.9 0 01-3.8-1.8 315.5 315.5 0 00-42.6-40.7 5 5 0 01-.9-7 5.2 5.2 0 017.1-.8 323.5 323.5 0 0144 42 4.9 4.9 0 01-.5 7 4.8 4.8 0 01-3.3 1.3zm-382.3-71.9a5 5 0 01-4.4-2.6 5.1 5.1 0 012.1-6.8 317.7 317.7 0 0156.3-23.2 5 5 0 012.9 9.6 308.1 308.1 0 00-54.5 22.5 5.2 5.2 0 01-2.4.5zm288.6-1.8a4.6 4.6 0 01-2.3-.6 300.5 300.5 0 00-54.8-21.7 5 5 0 012.8-9.6 312 312 0 0156.5 22.4 5 5 0 01-2.2 9.5zM993 877.3a5 5 0 01-.5-10 320.1 320.1 0 0132.5-1.7c9.5 0 19 .5 28.4 1.3a5 5 0 01-.9 10c-9.1-.8-18.3-1.3-27.5-1.3s-21.1.6-31.5 1.6zM651.8 694.9a61.4 61.4 0 01-61.3-61.3v-126a61.3 61.3 0 11122.5 0v126a61.3 61.3 0 01-61.2 61.3zm0-218.6a31.3 31.3 0 00-31.3 31.3v126a31.3 31.3 0 0031.3 31.3 31.3 31.3 0 0031.2-31.3v-126a31.3 31.3 0 00-31.2-31.3zm248.8 218.6a61.4 61.4 0 01-61.3-61.3v-126a61.3 61.3 0 11122.6 0v126a61.4 61.4 0 01-61.3 61.3zm0-218.6a31.3 31.3 0 00-31.3 31.3v126a31.3 31.3 0 1062.6 0v-126a31.4 31.4 0 00-31.3-31.3zm248.8 218.6a61.4 61.4 0 01-61.3-61.3v-126a61.3 61.3 0 11122.6 0v126a61.4 61.4 0 01-61.3 61.3zm0-218.6a31.4 31.4 0 00-31.3 31.3v126a31.3 31.3 0 1062.6 0v-126a31.3 31.3 0 00-31.3-31.3zm248.8 218.6a61.3 61.3 0 01-61.2-61.3v-126a61.3 61.3 0 11122.5 0v126a61.4 61.4 0 01-61.3 61.3zm0-218.6a31.3 31.3 0 00-31.2 31.3v126a31.3 31.3 0 1062.5 0v-126a31.3 31.3 0 00-31.3-31.3z" fill="#1682fc"/></svg>