<svg width="800" height="800" viewBox="0 0 2050 2050" data-name="Layer 3" id="Layer_3" xmlns="http://www.w3.org/2000/svg"><defs><style>.cls-1{fill:#e0e1e2}.cls-2{fill:#2e3a58}.cls-3{fill:#1682fc}</style></defs><path class="cls-1" d="M678.3 784.6H739v740.22h-60.7zm632.7 0h60.7v740.22H1311zm-513.9 682.1V570.5L739 604.6v920.2h572v-58.1H797.1z"/><circle class="cls-1" cx="1025" cy="811.2" r="143.3"/><path class="cls-2" d="M1311 1539.8H739a15 15 0 01-15-15V604.6a14.9 14.9 0 017.4-12.9l286-168.1a14.8 14.8 0 0115.2 0l286 168.1a14.9 14.9 0 017.4 12.9v920.2a15 15 0 01-15 15zm-557-30h542V613.2l-271-159.3-271 159.3z"/><path class="cls-3" d="M1051.8 784.3v-53.6h-53.6v53.6h-53.7V838h53.7v53.7h53.6V838h53.7v-53.7h-53.7zm-41.5 174.4h-.6a146.4 146.4 0 01-58.6-18.9 4.9 4.9 0 01-1.8-6.8 5 5 0 016.8-1.9 136.1 136.1 0 0054.7 17.7 5 5 0 014.4 5.5 4.9 4.9 0 01-4.9 4.4zm59.2-6.2a5 5 0 01-1.6-9.8 136.5 136.5 0 0049.7-28.8 5 5 0 017.1.4 4.8 4.8 0 01-.4 7 145.1 145.1 0 01-53.3 30.9 4 4 0 01-1.5.3zm-160.2-51.8a5.1 5.1 0 01-4.1-2 146.9 146.9 0 01-25.2-56.3 4.9 4.9 0 013.8-5.9 5 5 0 016 3.8 134.7 134.7 0 0023.5 52.5 5 5 0 01-1.1 6.9 4.6 4.6 0 01-2.9 1zm246.7-26.3a4.5 4.5 0 01-2-.4 5 5 0 01-2.6-6.6 137.3 137.3 0 0011.9-56.2.9.9 0 01.1-.5.6.6 0 01-.1-.4 137.2 137.2 0 00-12.2-56.2 4.9 4.9 0 012.5-6.6 5.1 5.1 0 016.6 2.5 146.5 146.5 0 0113.1 60.2v1a148.6 148.6 0 01-12.7 60.3 5.2 5.2 0 01-4.6 2.9zm-271.3-87.6h-1a4.9 4.9 0 01-3.9-5.9 145.9 145.9 0 0124.9-56.4 5 5 0 018.1 5.9 134.5 134.5 0 00-23.2 52.6 5 5 0 01-4.9 3.8zm235.6-77.7a5 5 0 01-3.3-1.2 136 136 0 00-49.9-28.5 5.1 5.1 0 01-3.3-6.3 5.1 5.1 0 016.3-3.3 146.6 146.6 0 0153.5 30.6 4.8 4.8 0 01.4 7 4.5 4.5 0 01-3.7 1.7zm-167.5-16.8a5 5 0 01-2.5-9.3 147.6 147.6 0 0158.5-19.3 5 5 0 015.5 4.4 5.1 5.1 0 01-4.4 5.6 136.9 136.9 0 00-54.6 17.9 4.5 4.5 0 01-2.5.7z"/><path class="cls-2" d="M813.6 1152.8h422.8v30H813.6z"/><path class="cls-2" d="M1203.5 1539.8h-357a15 15 0 01-15-15v-357a15 15 0 0115-15h357a15 15 0 0115 15v357a15 15 0 01-15 15zm-342-30h327v-327h-327z"/><path class="cls-2" d="M1010 1167.8h30v356.99h-30z"/><path class="cls-3" d="M1311 857.7h108v30h-108zm0 131.6h108v30h-108zm0 131.7h108v30h-108zm0 131.7h108v30h-108zm0 131.7h108v30h-108zm218.6 145.4a5 5 0 01-5-5v-4.7a5 5 0 015-5 5 5 0 015 5v4.7a5.1 5.1 0 01-5 5zm0-64.7a5 5 0 01-5-5v-60a5 5 0 015-5 5 5 0 015 5v60a5 5 0 01-5 5zm0-120a5 5 0 01-5-5v-60a5 5 0 015-5 5 5 0 015 5v60a5 5 0 01-5 5zm0-120a5 5 0 01-5-5v-60a5 5 0 015-5 5 5 0 015 5v60a5 5 0 01-5 5zm0-120a5 5 0 01-5-5v-60a5 5 0 015-5 5 5 0 015 5v60a5 5 0 01-5 5zm0-120a5 5 0 01-5-5v-60a5 5 0 015-5 5 5 0 015 5v60a5 5 0 01-5 5zm0-120a5 5 0 01-5-5v-60a5 5 0 015-5 5 5 0 015 5v60a5 5 0 01-5 5zM631 857.7h108v30H631zm0 131.6h108v30H631zm0 131.7h108v30H631zm0 131.7h108v30H631zm0 131.7h108v30H631zm-110.6 145.4a5.1 5.1 0 01-5-5v-4.7a5 5 0 015-5 5 5 0 015 5v4.7a5 5 0 01-5 5zm0-64.7a5 5 0 01-5-5v-60a5 5 0 015-5 5 5 0 015 5v60a5 5 0 01-5 5zm0-120a5 5 0 01-5-5v-60a5 5 0 015-5 5 5 0 015 5v60a5 5 0 01-5 5zm0-120a5 5 0 01-5-5v-60a5 5 0 015-5 5 5 0 015 5v60a5 5 0 01-5 5zm0-120a5 5 0 01-5-5v-60a5 5 0 015-5 5 5 0 015 5v60a5 5 0 01-5 5zm0-120a5 5 0 01-5-5v-60a5 5 0 015-5 5 5 0 015 5v60a5 5 0 01-5 5zm0-120a5 5 0 01-5-5v-60a5 5 0 015-5 5 5 0 015 5v60a5 5 0 01-5 5z"/><path class="cls-2" d="M1596.6 1539.8H1311a15 15 0 01-15-15V784.6a15 15 0 0115-15h285.6a15 15 0 0115 15v740.2a15 15 0 01-15 15zm-270.6-30h255.6V799.6H1326zm-587 30H453.4a15 15 0 01-15-15V784.6a15 15 0 0115-15H739a15 15 0 0115 15v740.2a15 15 0 01-15 15zm-270.6-30H724V799.6H468.4z"/></svg>