<svg width="800" height="800" viewBox="0 0 2050 2050" data-name="Layer 3" id="Layer_3" xmlns="http://www.w3.org/2000/svg"><defs><style>.cls-2{fill:#e0e1e2}.cls-3{fill:#1682fc}.cls-4{fill:#2e3a58}</style></defs><path d="M1455.3 692.2c0-121.7-69.4-220.3-155-220.3s-155 98.6-155 220.3c0 87.9 36.3 163.9 88.8 199.1 27.7 18.6 43.8 50.1 41.9 83.3l-30.3 533a54.7 54.7 0 0054.6 57.8 54.7 54.7 0 0054.6-57.8l-30.3-533c-1.9-33.2 14.2-64.7 41.9-83.3 52.5-35.2 88.8-111.2 88.8-199.1z" fill="#fafafa"/><path class="cls-2" d="M627.1 574.8h350.8v40.86H627.1zm-51.6 900.7V973.1a161.4 161.4 0 01111.2-153.4h-55a161.5 161.5 0 00-111.3 153.4v502.4a89.8 89.8 0 0089.9 89.9h55a89.8 89.8 0 01-89.8-89.9z"/><path class="cls-3" d="M693.8 501.5h29v114.17h-29zm94.2 0h29v114.17h-29zm94.3 0h29v114.17h-29zM520.4 966.8h564.2v29.03H520.4zm0 439.6h564.2v29.03H520.4zm305.8-219.5v-47.4h-47.4v47.4h-47.3v47.4h47.3v47.3h47.4v-47.3h47.4v-47.4h-47.4z"/><path class="cls-2" d="M1300.3 852.4c-28.8 0-50.3-24.5-60.5-39-21.9-31.2-34.5-75.3-34.5-121.2s12.6-90.1 34.5-121.2c10.2-14.6 31.7-39.1 60.5-39.1s50.2 24.5 60.5 39.1c21.9 31.1 34.5 75.3 34.5 121.2s-12.6 90-34.5 121.2c-10.3 14.5-31.8 39-60.5 39z"/><path class="cls-3" d="M1300.3 857.4c-25.4 0-45.3-17.4-57.5-31.9a4.9 4.9 0 01.6-7 5.1 5.1 0 017.1.6c10.8 12.9 28.2 28.3 49.8 28.3 13.5 0 26.9-6 39.9-17.9a5 5 0 017 .3 5 5 0 01-.3 7.1c-14.8 13.6-30.5 20.5-46.6 20.5zm78.2-71.7a5.8 5.8 0 01-1.9-.3 5 5 0 01-2.7-6.6 217.3 217.3 0 0014.9-60 5 5 0 0110 1 228.7 228.7 0 01-15.7 62.8 4.9 4.9 0 01-4.6 3.1zm-161.6-14.1a5 5 0 01-4.8-3.5 245.1 245.1 0 01-11.5-63.6 5 5 0 0110-.5 228.7 228.7 0 0011 61 4.9 4.9 0 01-3.2 6.3 4 4 0 01-1.5.3zm175.7-110.7a4.9 4.9 0 01-4.9-4.2 212.8 212.8 0 00-17.4-59.4 5 5 0 019-4.2 221.1 221.1 0 0118.3 62.1 5 5 0 01-4.2 5.7zm-182-14.8h-1a5 5 0 01-3.9-5.9c4.8-22.6 12.5-43.1 22.8-60.8a5.1 5.1 0 016.8-1.8 5.1 5.1 0 011.8 6.9c-9.6 16.5-17.1 36.5-21.6 57.7a5 5 0 01-4.9 3.9zm125.9-95.9a4.9 4.9 0 01-3-1c-10.8-8.1-22-12.3-33.2-12.3a50.2 50.2 0 00-21.3 5 5 5 0 11-4.2-9 58.5 58.5 0 0125.5-6c13.4 0 26.6 4.8 39.2 14.3a5 5 0 011 7 4.8 4.8 0 01-4 2z"/><path class="cls-4" d="M1300.3 1579.9a69.3 69.3 0 01-69.1-73.1l30.3-533c1.6-27.7-12-54.6-35.5-70.4-28.4-19.1-52.3-48.8-69.2-85.9s-26-80.8-26-125.3c0-61.8 17.1-120.1 48-164.1 32.1-45.6 75.2-70.7 121.5-70.7s89.4 25.1 121.4 70.7c31 44 48.1 102.3 48.1 164.1 0 44.5-9 87.9-26 125.3s-40.8 66.8-69.2 85.9c-23.5 15.8-37.1 42.7-35.6 70.4l30.3 533a69.1 69.1 0 01-69 73.1zm0-1093.5c-36.5 0-71.2 20.8-97.7 58.4-27.6 39.2-42.8 91.5-42.8 147.4 0 80 32.4 153.5 82.4 187.1 32 21.5 50.5 58.3 48.3 96.1l-30.3 533a40.2 40.2 0 1080.2 0l-30.3-533c-2.2-37.8 16.3-74.6 48.3-96.1 50-33.6 82.4-107.1 82.4-187.1 0-55.9-15.2-108.2-42.8-147.4-26.5-37.6-61.2-58.4-97.7-58.4z"/><path class="cls-3" d="M802.5 1380.9a169.7 169.7 0 01-58.3-10.3 4.9 4.9 0 01-3-6.4 5 5 0 016.4-3 158 158 0 0054.9 9.7h5.6a5 5 0 01.3 10zm67.2-14.2a4.9 4.9 0 01-4.5-3 5 5 0 012.5-6.6 159.3 159.3 0 0050.1-35.1 5 5 0 017.1-.1 4.8 4.8 0 01.1 7 168.5 168.5 0 01-53.2 37.3 5.4 5.4 0 01-2.1.5zm-177.9-28.3a5.1 5.1 0 01-3.3-1.3 171.9 171.9 0 01-39.2-52 5 5 0 119-4.4 159.4 159.4 0 0036.9 48.9 5 5 0 01.3 7.1 5 5 0 01-3.7 1.7zm264.1-60.9a5.8 5.8 0 01-1.9-.3 5 5 0 01-2.8-6.5 158.1 158.1 0 0011.7-60.1 163 163 0 00-1.5-22.1 5 5 0 119.9-1.3 181.5 181.5 0 011.6 23.4 169.7 169.7 0 01-12.4 63.8 4.9 4.9 0 01-4.6 3.1zM637.6 1227a5.1 5.1 0 01-5-4.7c-.3-3.9-.4-7.8-.4-11.7a169.2 169.2 0 018.4-52.9 5 5 0 016.3-3.2 5.1 5.1 0 013.2 6.3 158.2 158.2 0 00-7.9 49.8c0 3.6.1 7.4.4 11a4.9 4.9 0 01-4.7 5.3zm308.3-93.9a5 5 0 01-4.3-2.5 161.8 161.8 0 00-40.2-46.2 5.2 5.2 0 01-.8-7.1 5 5 0 017-.8 169.8 169.8 0 0142.6 49.1 5.1 5.1 0 01-1.8 6.9 5.7 5.7 0 01-2.5.6zm-269.9-24a4.8 4.8 0 01-3.2-1.1 5.1 5.1 0 01-.6-7.1 171.1 171.1 0 0150.6-40.9 5 5 0 014.6 8.9 160.8 160.8 0 00-47.6 38.5 5.2 5.2 0 01-3.8 1.7zm172.4-52.4l-1.4-.2a159 159 0 00-44.5-6.3 150.7 150.7 0 00-16.5.9 5 5 0 01-5.5-4.5 5 5 0 014.5-5.5 170.9 170.9 0 0117.5-.9 169.8 169.8 0 0147.2 6.7 5 5 0 013.5 6.1 5.2 5.2 0 01-4.8 3.7z"/><path class="cls-4" d="M994.8 1579.9H610.3a104.5 104.5 0 01-104.4-104.4V973.1c0-92.1 71.2-167.9 161.4-175.3V615.7a14.5 14.5 0 0114.5-14.5h241.5a14.5 14.5 0 0114.5 14.5v182.1c90.2 7.4 161.4 83.2 161.4 175.3v502.4a104.5 104.5 0 01-104.4 104.4zM696.3 630.2v181.5a14.5 14.5 0 01-14.5 14.5c-81 0-146.9 65.9-146.9 146.9v502.4a75.5 75.5 0 0075.4 75.4h384.5a75.4 75.4 0 0075.3-75.4V973.1c0-81-65.8-146.9-146.8-146.9a14.5 14.5 0 01-14.5-14.5V630.2z"/><path class="cls-3" d="M978 630.2H627.1a14.5 14.5 0 01-14.5-14.5V501.5a14.5 14.5 0 0114.5-14.5H978a14.5 14.5 0 0114.5 14.5v114.2a14.5 14.5 0 01-14.5 14.5zm-336.4-29h321.8V516H641.6z"/></svg>