<svg width="800" height="800" viewBox="0 0 2050 2050" data-name="Layer 3" id="Layer_3" xmlns="http://www.w3.org/2000/svg"><defs><style>.cls-1{fill:#e0e1e2}.cls-2{fill:#1682fc}.cls-3{fill:#2e3a58}</style></defs><path class="cls-1" d="M1509.5 1333.8l-88.7 87.3a256.1 256.1 0 01-257.7 61.5 1122.9 1122.9 0 01-451.2-275.1 1120 1120 0 01-275.1-451.2 272 272 0 01-7.2-27.9 256.4 256.4 0 007.2 128.1 1120.9 1120.9 0 00726.3 726.3 256.2 256.2 0 00257.7-61.4l88.7-87.4a91.9 91.9 0 0012.6-115.6 101.1 101.1 0 01-12.6 15.4z"/><path class="cls-2" d="M780.3 791.7a5.5 5.5 0 01-3.8-1.6L742.4 756a5.4 5.4 0 010-7.6 5.5 5.5 0 017.7 0l34 34.1a5.4 5.4 0 010 7.6 5.5 5.5 0 01-3.8 1.6zm-82.5-82.5a5.2 5.2 0 01-3.8-1.6l-48.4-48.4a5.4 5.4 0 017.6-7.6l48.4 48.4a5.4 5.4 0 010 7.6 5.1 5.1 0 01-3.8 1.6zM601 612.3a5.4 5.4 0 01-3.8-1.5l-48.5-48.5a5.4 5.4 0 010-7.6 5.5 5.5 0 017.7 0l48.4 48.4a5.5 5.5 0 010 7.7 5.7 5.7 0 01-3.8 1.5zm875.2 857.3a5.1 5.1 0 01-3.8-1.6l-48.5-48.4a5.4 5.4 0 010-7.6 5.5 5.5 0 017.7 0l48.4 48.4a5.4 5.4 0 010 7.6 5.2 5.2 0 01-3.8 1.6zm-96.9-96.8a5.9 5.9 0 01-3.8-1.6l-48.4-48.4a5.5 5.5 0 010-7.7 5.4 5.4 0 017.6 0l48.4 48.5a5.2 5.2 0 010 7.6 5.5 5.5 0 01-3.8 1.6zm-96.8-96.9a5.1 5.1 0 01-3.8-1.6l-48.5-48.4a5.4 5.4 0 010-7.6 5.5 5.5 0 017.7 0l48.4 48.4a5.4 5.4 0 010 7.6 5.2 5.2 0 01-3.8 1.6z"/><path class="cls-1" d="M1234.1 977.5c-128.8 0-234.7-97.6-247.8-222.9a251.2 251.2 0 00-1.3 26.2c0 137.6 111.5 249.1 249.1 249.1s249.1-111.5 249.1-249.1a251 251 0 00-1.4-26.2c-13.1 125.3-119 222.9-247.7 222.9z"/><path class="cls-3" d="M1234.1 1044.9a264.3 264.3 0 11186.7-77.4 262.4 262.4 0 01-186.7 77.4zm0-498.2a234 234 0 10165.5 68.5 232.6 232.6 0 00-165.5-68.5z"/><path class="cls-2" d="M1234.1 975.3a194.2 194.2 0 01-68.9-12.6 5.5 5.5 0 01-3.2-7 5.4 5.4 0 017-3.1 182.7 182.7 0 0065.1 11.9 5.4 5.4 0 110 10.8zm24-1.5a5.3 5.3 0 01-5.3-4.8 5.4 5.4 0 014.6-6 182.2 182.2 0 0063-20.1 5.4 5.4 0 015.1 9.5 191.6 191.6 0 01-66.7 21.3zm-149.3-46.1a5.5 5.5 0 01-3.6-1.3 194.3 194.3 0 01-43.2-55.1 5.3 5.3 0 012.2-7.2 5.4 5.4 0 017.3 2.2 184.3 184.3 0 0040.9 52 5.5 5.5 0 01.5 7.6 5.5 5.5 0 01-4.1 1.8zm267.5-17a5.5 5.5 0 01-4.1-9 182.3 182.3 0 0034-56.7 5.4 5.4 0 0110.1 3.7 194.7 194.7 0 01-36 60.1 5 5 0 01-4 1.9zm-329.9-101.5a5.4 5.4 0 01-5.4-4.7 207.9 207.9 0 01-1.4-23.7 193.4 193.4 0 015.5-46.2 5.4 5.4 0 016.5-4 5.5 5.5 0 014 6.6 182 182 0 00-5.3 43.6 185.8 185.8 0 001.4 22.4 5.3 5.3 0 01-4.7 6zm376.8-24a5.4 5.4 0 01-5.4-5.4 182.5 182.5 0 00-12.3-65 5.4 5.4 0 013.1-6.9 5.4 5.4 0 017 3.1 194.1 194.1 0 0113 68.8 5.4 5.4 0 01-5.4 5.4zm-345-106.1a5.5 5.5 0 01-3-.9 5.3 5.3 0 01-1.4-7.5 195.7 195.7 0 0149.4-49.6 5.4 5.4 0 017.5 1.3 5.4 5.4 0 01-1.4 7.5 183.8 183.8 0 00-46.6 46.9 5.6 5.6 0 01-4.5 2.3zm296.8-18.9a5.3 5.3 0 01-4-1.8 185.5 185.5 0 00-52.2-40.6 5.3 5.3 0 01-2.3-7.3 5.5 5.5 0 017.3-2.3 194 194 0 0155.2 43 5.5 5.5 0 01-.4 7.7 5.3 5.3 0 01-3.6 1.3zm-186.8-57.5a5.4 5.4 0 01-5.2-4.1 5.3 5.3 0 013.9-6.5 196.2 196.2 0 0169.9-4.5 5.4 5.4 0 01-1.2 10.7 193.7 193.7 0 00-21.5-1.2 185.2 185.2 0 00-44.6 5.4zm83.8 145.6v-75.9h-75.9v75.9h-75.9v75.9h75.9v76h75.9v-76h75.9v-75.9H1272z"/><path class="cls-3" d="M1241.1 1610a270.9 270.9 0 01-82.6-12.9 1135.6 1135.6 0 01-457.2-278.8 1136.7 1136.7 0 01-278.8-457.2 271 271 0 0165-272.7l87.4-88.8a107.1 107.1 0 01151.9-.6l113.6 113.7a106.9 106.9 0 010 151.2l-48.8 48.8a60.2 60.2 0 00-13.6 64.1c39.6 103 82.8 175.8 135.9 228.9s125.9 96.3 229 135.9a60.2 60.2 0 0064-13.5l48.8-48.9a107.1 107.1 0 01151.3 0l113.6 113.7a107 107 0 01-.6 151.8l-88.7 87.4a271.2 271.2 0 01-190.2 77.9zm-73.4-41.5a241 241 0 00242.5-57.8l88.8-87.4a77 77 0 00.4-109.2l-113.6-113.7a77.1 77.1 0 00-108.9 0l-48.8 48.9a90.1 90.1 0 01-96 20.3c-107.1-41.2-183.2-86.5-239.4-142.7S791.2 994.7 750 887.5a90 90 0 0120.4-96l48.8-48.8a77 77 0 000-108.8L705.6 520.2a76.7 76.7 0 00-54.4-22.5h-.3a76.3 76.3 0 00-54.6 23l-87.4 88.7a241 241 0 00-57.8 242.5 1105.6 1105.6 0 00716.6 716.6z"/></svg>