<svg width="800" height="800" viewBox="0 0 2050 2050" data-name="Layer 3" id="Layer_3" xmlns="http://www.w3.org/2000/svg"><defs><style>.cls-1{fill:#1682fc}</style></defs><path class="cls-1" d="M578.4 1532a5.5 5.5 0 01-3.8-1.6 5.4 5.4 0 010-7.6l48.4-48.5a5.4 5.4 0 017.6 0 5.5 5.5 0 010 7.7l-48.4 48.4a5.7 5.7 0 01-3.8 1.6zm96.8-96.9a5.2 5.2 0 01-3.8-1.6 5.4 5.4 0 010-7.6l48.4-48.4a5.5 5.5 0 017.7 0 5.4 5.4 0 010 7.6l-48.5 48.4a5.1 5.1 0 01-3.8 1.6zm96.9-96.8a5.5 5.5 0 01-3.8-1.6 5.4 5.4 0 010-7.6l48.4-48.5a5.4 5.4 0 017.6 0 5.5 5.5 0 010 7.7l-48.4 48.4a5.7 5.7 0 01-3.8 1.6zm96.8-96.9a5.2 5.2 0 01-3.8-1.6 5.4 5.4 0 010-7.6l48.4-48.4a5.5 5.5 0 017.7 0 5.4 5.4 0 010 7.6l-48.5 48.4a5.1 5.1 0 01-3.8 1.6zm96.9-96.8a5.5 5.5 0 01-3.8-1.6 5.4 5.4 0 010-7.6l22.8-22.9a5.4 5.4 0 017.6 7.6l-22.8 22.9a5.7 5.7 0 01-3.8 1.6zm130.1-82.5a5.5 5.5 0 01-3.2-1 5.4 5.4 0 01-1.2-7.5l39.7-55.8a5.4 5.4 0 018.8 6.3l-39.7 55.7a5.4 5.4 0 01-4.4 2.3zm79.5-111.5a5.7 5.7 0 01-3.1-1 5.5 5.5 0 01-1.3-7.6l39.8-55.7a5.4 5.4 0 017.5-1.3 5.3 5.3 0 011.2 7.5l-39.7 55.8a5.4 5.4 0 01-4.4 2.3zm79.5-111.6a5 5 0 01-3.1-1 5.3 5.3 0 01-1.3-7.5l39.8-55.7a5.3 5.3 0 118.7 6.2l-39.7 55.8a5.3 5.3 0 01-4.4 2.2zm79.5-111.5a5 5 0 01-3.1-1 5.4 5.4 0 01-1.3-7.5l39.8-55.8a5.4 5.4 0 018.8 6.3l-39.8 55.8a5.4 5.4 0 01-4.4 2.2zm79.5-111.5a5 5 0 01-3.1-1 5.4 5.4 0 01-1.3-7.5l39.8-55.8a5.3 5.3 0 017.5-1.2 5.4 5.4 0 011.3 7.5l-39.8 55.7a5.3 5.3 0 01-4.4 2.3z"/><path d="M1562.6 568.7a113.1 113.1 0 01-155.7 159.8l-.8-.6a24.5 24.5 0 00-34.1 5.7l-229.6 322 24 24.7L1412 735.9a108.8 108.8 0 0019.3 17c50.4 34.8 120.1 22.8 156-26.8a113.2 113.2 0 00-24.7-157.4zm-537.8 563.4l-279.3 279.4a25.4 25.4 0 000 35.8v.2c2.1 2.1 4.1 4.3 6 6.5l297.6-297.6-22.9-40.1-11.2-1.3zm-269.1 327.3c32.3 44 28.6 106.5-10.7 146.3a113.1 113.1 0 01-147.3 11.8 114.7 114.7 0 0011.2 13 113 113 0 00160.4-.5c43.1-43.5 43.4-114.3.7-158.2a118.7 118.7 0 00-14.3-12.4z" fill="#e0e1e2"/><path d="M1166.4 1095.3a14.9 14.9 0 01-10.7-4.5l-24.4-25-33.8 8.2a15.1 15.1 0 01-13.1-3 15.2 15.2 0 01-5.4-12.3l1.8-38.1-33.9-8.4a15 15 0 01-8.6-23.2l235.6-330.4a88 88 0 01-9-6A128.1 128.1 0 111468 534.8a128 128 0 11-45.2 230.4c-3-2.1-5.8-4.2-8.6-6.5L1178.7 1089a15.5 15.5 0 01-11.1 6.3zm-30.3-61.1a14.9 14.9 0 0110.7 4.5l17.9 18.3 235.1-329.8a14.7 14.7 0 0111.3-6.2 15.1 15.1 0 0112 4.8 94.3 94.3 0 0016.8 14.7c43.5 30.2 104.2 19.7 135.2-23.2a98.1 98.1 0 00-115.9-148.5 15 15 0 01-14.2-1.7 15.2 15.2 0 01-6.3-13 98.1 98.1 0 00-178.2-61.1c-30.5 43.3-20.5 104.1 22.2 135.4a92.9 92.9 0 0019.3 11.1 14.9 14.9 0 018.5 9.8 15.1 15.1 0 01-2.2 12.7l-232.7 326.4 24.3 6.1a15 15 0 0111.4 15.2l-1.4 30.4 22.7-5.5a13.9 13.9 0 013.5-.4zm-447.2 644.5A128 128 0 01561 1544a128 128 0 11-7.2-255.9h.6a127 127 0 0189.2 36.1 92.2 92.2 0 017.4 7.9l286.9-286.9a14.8 14.8 0 018.1-4.2l47-7.9a15 15 0 0117.2 17.6l-9 47.5 26.9 3.2a15.1 15.1 0 0111.2 7.5l22.9 40.1a15.1 15.1 0 01-2.4 18l-286.9 286.9c2.7 2.4 5.3 4.9 7.8 7.4a128.1 128.1 0 01-91.4 217.4zm-110.5-167.1a14.9 14.9 0 0114.6 18.1 98.2 98.2 0 0095.9 119h.3a97.7 97.7 0 0069.5-29.2c37.2-37.7 37.4-99.3.5-137.3a100.9 100.9 0 00-17.2-14.1 14.7 14.7 0 01-6.8-11 15 15 0 014.3-12.2l291-291-13.5-23.6-35.3-4.2a15.3 15.3 0 01-10.3-6 14.8 14.8 0 01-2.6-11.7l7.9-42.2-21 3.6L660 1365.5a14.8 14.8 0 01-12.2 4.3 15.2 15.2 0 01-11-6.8 97.8 97.8 0 00-14.1-17.3c-38-36.9-99.6-36.7-137.3.6a98.1 98.1 0 0089.8 165.6 17.3 17.3 0 013.2-.3z" fill="#2e3a58"/><path class="cls-1" transform="rotate(-9.2 996.14 783.727)" d="M972.6 693.3h30v170.38h-30z"/><path class="cls-1" transform="rotate(-80.7 773.439 993)" d="M758.1 907.8h30v170.38h-30z"/><path class="cls-1" transform="rotate(-45 859.54 864.867)" d="M844.5 788.5h30v152.62h-30z"/><path class="cls-1" transform="rotate(-80.7 1326.385 1116.715)" d="M1310.9 1031.5h30v170.38h-30z"/><path class="cls-1" transform="matrix(.99 -.16 .16 .99 -200.12 196.64)" d="M1096.4 1246h30v170.38h-30z"/><path class="cls-1" transform="rotate(-45 1239.54 1244.866)" d="M1224.5 1168.5h30v152.62h-30z"/></svg>